<svg width="24" height="23" viewBox="0 0 24 23" fill="none" xmlns="http://www.w3.org/2000/svg">
<circle cx="13.5" cy="11.5" r="2.5" fill="#5E3D51"/>
<path d="M0.0304686 11.7077C-0.0658245 9.50055 1.83903 7.55744 3.39022 7.15776C4.78472 6.8009 5.99363 7.21486 7.03185 8.18552C7.25242 8.40019 7.48634 8.60015 7.73216 8.78415C8.66708 9.45594 9.15292 9.19543 9.54247 8.04902C9.79196 7.31389 9.57398 6.60195 9.36739 5.91767C8.95683 4.55625 8.96559 3.20731 9.54247 1.93243C10.0029 0.922513 10.768 0.185595 11.9445 0.0241155C13.3539 -0.170373 14.8272 0.835084 15.0671 2.19026C15.1669 2.75499 14.9209 3.26709 14.836 3.80327C14.7554 4.31091 14.6609 4.81586 14.716 5.33509C14.7747 5.90696 15.096 6.10324 15.6107 5.87039C16.0437 5.65702 16.4348 5.36462 16.7644 5.00767C18.1835 3.55614 19.845 3.42857 21.5852 4.17708C22.8528 4.72308 23.0428 6.11216 22.0938 7.04713C21.6316 7.50213 21.0302 7.69751 20.484 7.99638C20.2021 8.15072 19.9054 8.27741 19.6305 8.44246C18.8286 8.92868 18.7236 9.73875 19.3363 10.4882C20.0008 11.3 20.9462 11.5748 21.8697 11.8888C22.7933 12.2029 23.5706 12.6605 23.8831 13.6776C24.2534 14.8749 23.7081 15.7929 22.7512 16.3077C21.4758 16.9937 20.0883 16.983 18.7043 16.8082C18.1016 16.7162 17.4914 16.6846 16.8826 16.7136C16.1709 16.7662 15.8488 17.3577 15.5643 17.9385C15.187 18.7084 15.0391 19.5712 14.6696 20.3402C14.2083 21.2948 13.7627 22.2637 12.6886 22.7142C11.2285 23.3262 9.04262 23.03 8.32218 21.0923C8.02017 20.2786 8.1007 19.4329 8.30904 18.5996C8.56641 17.5665 9.00411 16.5905 9.23346 15.544C9.40854 14.7455 9.11353 14.1165 8.43948 13.9006C8.28511 13.861 8.12371 13.8591 7.96852 13.8953C6.92855 14.0559 5.97613 14.5341 4.94754 14.7393C4.07215 14.9177 3.19676 14.99 2.31174 14.8097C0.878723 14.5207 -0.197133 13.3564 0.0304686 11.7077ZM15.728 11.2804C15.8707 10.1884 15.0093 9.49609 14.386 9.37654C13.0904 9.12674 11.9349 9.77266 11.4202 11.0092C10.9536 12.1297 11.4998 13.1503 12.3761 13.5349C13.979 14.2281 15.8479 12.5927 15.728 11.2777V11.2804Z" fill="white"/>
</svg>
